<svg width="39" height="24" viewBox="0 0 39 24" fill="none" xmlns="http://www.w3.org/2000/svg">
<path d="M11.4271 8.8991C11.4271 9.36555 11.4775 9.74374 11.5657 10.0211C11.6666 10.2984 11.7927 10.601 11.9692 10.9288C12.0322 11.0296 12.0574 11.1305 12.0574 11.2187C12.0574 11.3448 11.9818 11.4708 11.8179 11.5969L11.0237 12.1264C10.9102 12.202 10.7967 12.2399 10.6959 12.2399C10.5698 12.2399 10.4438 12.1768 10.3177 12.0634C10.1412 11.8743 9.98992 11.6726 9.86385 11.4708C9.73779 11.2565 9.61172 11.017 9.47305 10.7271C8.48973 11.8869 7.25429 12.4668 5.76671 12.4668C4.70775 12.4668 3.86311 12.1642 3.24539 11.5591C2.62766 10.954 2.3125 10.1472 2.3125 9.13863C2.3125 8.06707 2.6907 7.19721 3.4597 6.54167C4.2287 5.88613 5.24984 5.55835 6.54832 5.55835C6.97694 5.55835 7.41817 5.59617 7.88462 5.65921C8.35106 5.72224 8.83011 5.82309 9.33438 5.93655V5.01627C9.33438 4.05817 9.13267 3.39002 8.74187 2.99921C8.33845 2.60841 7.6577 2.41931 6.68699 2.41931C6.24576 2.41931 5.79192 2.46974 5.32548 2.5832C4.85903 2.69665 4.4052 2.83533 3.96396 3.01182C3.76226 3.10007 3.61098 3.15049 3.52273 3.17571C3.43449 3.20092 3.37145 3.21353 3.32103 3.21353C3.14454 3.21353 3.05629 3.08746 3.05629 2.82272V2.205C3.05629 2.00329 3.0815 1.85201 3.14454 1.76377C3.20757 1.67552 3.32103 1.58727 3.49752 1.49903C3.93875 1.27211 4.46823 1.08301 5.08595 0.931731C5.70368 0.767845 6.35922 0.692205 7.05258 0.692205C8.55277 0.692205 9.64954 1.03258 10.3555 1.71334C11.0489 2.3941 11.4019 3.42784 11.4019 4.81456V8.8991H11.4271ZM6.30879 10.8153C6.72481 10.8153 7.15343 10.7397 7.60727 10.5884C8.06111 10.4371 8.46452 10.1598 8.8049 9.78156C9.0066 9.54204 9.15788 9.2773 9.23352 8.97474C9.30916 8.67218 9.35959 8.30659 9.35959 7.87797V7.34849C8.994 7.26024 8.60319 7.1846 8.19978 7.13418C7.79637 7.08375 7.40557 7.05854 7.01476 7.05854C6.17012 7.05854 5.5524 7.22242 5.13638 7.5628C4.72036 7.90318 4.51866 8.38223 4.51866 9.01256C4.51866 9.60507 4.66993 10.0463 4.9851 10.3489C5.28766 10.664 5.72889 10.8153 6.30879 10.8153ZM16.4319 12.1768C16.205 12.1768 16.0537 12.139 15.9528 12.0508C15.852 11.9751 15.7637 11.7986 15.6881 11.5591L12.7256 1.81419C12.6499 1.56206 12.6121 1.39817 12.6121 1.30993C12.6121 1.10822 12.7129 0.994764 12.9146 0.994764H14.1501C14.3896 0.994764 14.5535 1.03258 14.6418 1.12083C14.7426 1.19647 14.8182 1.37296 14.8939 1.61249L17.0118 9.95806L18.9784 1.61249C19.0415 1.36036 19.1171 1.19647 19.2179 1.12083C19.3188 1.04519 19.4953 0.994764 19.7222 0.994764H20.7307C20.9703 0.994764 21.1342 1.03258 21.235 1.12083C21.3359 1.19647 21.4241 1.37296 21.4745 1.61249L23.4664 10.0589L25.6473 1.61249C25.723 1.36036 25.8112 1.19647 25.8994 1.12083C26.0003 1.04519 26.1642 0.994764 26.3911 0.994764H27.5635C27.7652 0.994764 27.8787 1.09562 27.8787 1.30993C27.8787 1.37296 27.8661 1.43599 27.8535 1.51163C27.8409 1.58727 27.8157 1.68813 27.7652 1.8268L24.727 11.5717C24.6514 11.8238 24.5631 11.9877 24.4623 12.0634C24.3614 12.139 24.1976 12.1894 23.9832 12.1894H22.8991C22.6596 12.1894 22.4957 12.1516 22.3948 12.0634C22.294 11.9751 22.2057 11.8112 22.1553 11.5591L20.2013 3.42784L18.2598 11.5465C18.1968 11.7986 18.1212 11.9625 18.0203 12.0508C17.9195 12.139 17.743 12.1768 17.5161 12.1768H16.4319ZM32.6314 12.5172C31.9758 12.5172 31.3203 12.4416 30.69 12.2903C30.0596 12.139 29.568 11.9751 29.2402 11.786C29.0385 11.6726 28.8998 11.5465 28.8494 11.433C28.799 11.3196 28.7738 11.1935 28.7738 11.08V10.4371C28.7738 10.1724 28.8746 10.0463 29.0637 10.0463C29.1393 10.0463 29.215 10.0589 29.2906 10.0841C29.3663 10.1093 29.4797 10.1598 29.6058 10.2102C30.0344 10.3993 30.5009 10.5506 30.9925 10.6514C31.4968 10.7523 31.9884 10.8027 32.4927 10.8027C33.2869 10.8027 33.9046 10.664 34.3333 10.3867C34.7619 10.1093 34.9888 9.70592 34.9888 9.18905C34.9888 8.83607 34.8753 8.54612 34.6484 8.30659C34.4215 8.06707 33.9929 7.85275 33.3752 7.65105L31.5472 7.08375C30.6269 6.7938 29.9462 6.36518 29.5301 5.79788C29.1141 5.24319 28.8998 4.62546 28.8998 3.96992C28.8998 3.44044 29.0133 2.974 29.2402 2.57059C29.4671 2.16718 29.7697 1.81419 30.1479 1.53685C30.5261 1.2469 30.9547 1.03258 31.459 0.881304C31.9632 0.730025 32.4927 0.666992 33.0474 0.666992C33.3247 0.666992 33.6147 0.679599 33.892 0.717419C34.182 0.755238 34.4467 0.805665 34.7115 0.856091C34.9636 0.919124 35.2031 0.982157 35.43 1.0578C35.657 1.13344 35.8335 1.20908 35.9595 1.28472C36.136 1.38557 36.2621 1.48642 36.3377 1.59988C36.4134 1.70073 36.4512 1.83941 36.4512 2.0159V2.60841C36.4512 2.87315 36.3503 3.01182 36.1612 3.01182C36.0604 3.01182 35.8965 2.96139 35.6822 2.86054C34.9636 2.53277 34.1568 2.36888 33.2617 2.36888C32.5431 2.36888 31.9758 2.48234 31.585 2.72187C31.1942 2.96139 30.9925 3.32698 30.9925 3.84386C30.9925 4.19684 31.1186 4.4994 31.3707 4.73892C31.6228 4.97845 32.0893 5.21798 32.7574 5.43229L34.5476 5.99958C35.4552 6.28954 36.1108 6.69295 36.5016 7.20982C36.8924 7.72669 37.0815 8.3192 37.0815 8.97474C37.0815 9.51683 36.968 10.0085 36.7537 10.4371C36.5268 10.8657 36.2243 11.2439 35.8335 11.5465C35.4426 11.8617 34.9762 12.0886 34.4341 12.2525C33.8668 12.429 33.2743 12.5172 32.6314 12.5172Z" fill="white"/>
<path fillRule="evenodd" clipRule="evenodd" d="M35.0149 18.6437C30.8673 21.7071 24.8413 23.3333 19.66 23.3333C12.3986 23.3333 5.8558 20.6481 0.914016 16.1854C0.523211 15.8324 0.876196 15.3533 1.34264 15.6307C6.68784 18.7319 13.2811 20.6103 20.1013 20.6103C24.7027 20.6103 29.7579 19.6522 34.4098 17.6856C35.1031 17.3704 35.6956 18.1394 35.0149 18.6437Z" fill="#FF9900"/>
<path fillRule="evenodd" clipRule="evenodd" d="M36.7425 16.6772C36.213 15.9965 33.2378 16.3494 31.8889 16.5133C31.4855 16.5638 31.4225 16.2108 31.7881 15.946C34.1581 14.282 38.0536 14.761 38.5074 15.3157C38.9612 15.883 38.3813 19.7784 36.1626 21.6442C35.8222 21.9342 35.4944 21.7829 35.6457 21.4047C36.15 20.1566 37.272 17.3454 36.7425 16.6772Z" fill="#FF9900"/>
</svg>