
    <svg width="43" height="33" viewBox="0 0 43 33" fill="none" xmlns="http://www.w3.org/2000/svg">
    <g clipPath="url(#clip0_318_5785)">
    <path fillRule="evenodd" clipRule="evenodd" d="M19.76 30.3631L29.5291 28.636L29.6201 28.6157L24.5939 22.6416C22.9275 20.675 21.1633 18.597 19.6048 16.627C19.6048 16.5967 24.7929 2.31409 24.8199 2.26349C24.8301 2.24662 28.3619 8.34218 33.378 17.0352L41.9833 31.9553L42.0474 32.07L26.0815 32.0666L10.1157 32.0633L19.7903 30.3564L19.76 30.3631ZM0.599609 28.5449C0.599609 28.5382 2.96767 24.4261 5.85859 19.4134L11.1176 10.2953L17.2469 5.15103C20.6202 2.32421 23.3896 0.0033733 23.3998 0C23.3762 0.0877059 23.3424 0.168665 23.3019 0.249624L16.643 14.5254L10.1056 28.5449L5.35259 28.5516C2.73828 28.5584 0.599609 28.5516 0.599609 28.5449Z" fill="#1893D9"/>
    </g>
    <defs>
    <clipPath id="clip0_318_5785">
    <rect width="41.4512" height="32.07" fill="white" transform="translate(0.599609)"/>
    </clipPath>
    </defs>
    </svg>
