
    <svg width="38" height="30" viewBox="0 0 38 30" fill="none" xmlns="http://www.w3.org/2000/svg">
<g clipPath="url(#clip0_318_5797)">
<path fillRule="evenodd" clipRule="evenodd" d="M32.734 10.7807C31.9804 8.00099 30.4274 5.5465 28.3313 3.68457L23.7352 8.28071C25.5767 9.7667 26.7579 12.0406 26.7579 14.5861V15.3972C28.9939 15.3972 30.8104 17.2178 30.8104 19.4497C30.8104 21.6857 28.9899 23.5022 26.7579 23.5022H18.653L17.8418 24.3181V29.1817L18.653 29.9888H26.7579C32.5749 29.9806 37.2883 25.2673 37.297 19.4504C37.2929 15.8636 35.4905 12.6904 32.7341 10.7814V10.7808L32.734 10.7807Z" fill="#4285F4"/>
<path fillRule="evenodd" clipRule="evenodd" d="M10.5394 29.9998H18.6397V23.508H10.5394C9.96387 23.5081 9.39515 23.3845 8.87162 23.1455L7.70206 23.5039L4.45618 26.7498L4.17188 27.8454C6.00102 29.2408 8.23822 29.9963 10.539 29.9952L10.5395 29.9998H10.5394Z" fill="#47AF63"/>
<path fillRule="evenodd" clipRule="evenodd" d="M23.7339 8.29125L24.9285 8.31173L28.1744 5.06574L28.3317 3.69052C25.6661 1.31066 22.2169 -0.00312728 18.6435 5.59007e-06C11.9186 5.59007e-06 6.24261 4.57578 4.5625 10.7739C4.91685 10.5268 5.67433 10.7122 5.67433 10.7122L12.1604 9.64577C12.1604 9.64577 12.4937 9.09394 12.6626 9.12135C14.1962 7.43642 16.3693 6.47654 18.6474 6.47743C20.5706 6.48146 22.3421 7.16096 23.7337 8.2851V8.29136H23.7339V8.29125Z" fill="#EA4335"/>
<path fillRule="evenodd" clipRule="evenodd" d="M10.5391 8.91602C4.72213 8.93 0.00816783 13.6433 0 19.4604C0 22.8829 1.63938 25.926 4.176 27.8538L8.87519 23.1544C7.42243 22.4992 6.48783 21.0541 6.48649 19.4604C6.48649 17.2244 8.30702 15.4079 10.539 15.4079C12.1823 15.4079 13.595 16.3985 14.2336 17.7972L18.9329 13.0979C17.0058 10.5612 13.9621 8.92195 10.5396 8.92195L10.5391 8.91602Z" fill="#FBBC05"/>
</g>
<defs>
<clipPath id="clip0_318_5797">
<rect width="37.2961" height="30" fill="white"/>
</clipPath>
</defs>
</svg>
