
    <svg width="45" height="28" viewBox="0 0 45 28" fill="none" xmlns="http://www.w3.org/2000/svg">
    <g clipPath="url(#clip0_318_5811)">
    <path d="M14.4008 28C6.67117 28 0.398438 21.7429 0.398438 14.011C0.398438 6.27938 6.67117 0 14.4008 0H30.6755C38.4074 0 44.6755 6.27938 44.6755 14.011C44.6755 21.7429 38.4074 28 30.6755 28H14.4008ZM30.3136 23.0612C35.3214 23.0612 39.3775 19.0168 39.3775 14.011C39.3775 9.00546 35.3214 4.93842 30.3136 4.93842H14.7604C9.75491 4.93842 5.69651 9.00546 5.69651 14.011C5.69651 19.0168 9.75457 23.0612 14.7604 23.0612H30.3136Z" fill="#CB5747"/>
    </g>
    <defs>
    <clipPath id="clip0_318_5811">
    <rect width="44.2771" height="28" fill="white" transform="translate(0.398438)"/>
    </clipPath>
    </defs>
    </svg>
    

