 <svg width="654" height="545" viewBox="0 0 654 545" fill="none" xmlns="http://www.w3.org/2000/svg">
<circle cx="303.5" cy="272.5" r="272.5" fill="url(#paint0_linear_11552_25444)"/>
<circle cx="303.501" cy="272.5" r="183.138" fill="url(#paint1_linear_11552_25444)" fill-opacity="0.1"/>
<g clip-path="url(#clip0_11552_25444)">
<path d="M424.468 209.391L425.669 206.35L424.468 209.391C430.025 211.585 431.81 215.854 432.963 221.385C433.206 222.55 433.409 223.717 433.621 224.928C433.663 225.171 433.706 225.416 433.75 225.663C434.004 227.108 434.28 228.613 434.638 230.064C435.345 232.925 436.464 235.993 438.821 238.354L441.135 236.043L438.822 238.354C443.278 242.815 447.914 244.871 452.693 245.513C457.317 246.133 461.921 245.397 466.163 244.646C466.49 244.589 466.815 244.531 467.139 244.473C475.461 242.991 483.07 241.636 491.619 246.717C492.923 247.492 494.211 249.389 494.907 253.241C495.586 257.001 495.576 261.996 494.912 267.93C493.587 279.764 489.744 294.616 484.581 309.233C479.421 323.841 473.011 338.022 466.648 348.528C463.459 353.792 460.354 358.015 457.504 360.898C454.565 363.87 452.413 364.895 451.101 364.957L211.301 363.536L194.903 362.098C194.59 361.921 194.156 361.671 193.625 361.352C192.442 360.643 190.779 359.6 188.886 358.277C185.069 355.61 180.446 351.896 176.887 347.577C173.293 343.215 171.111 338.639 171.369 334.148C171.618 329.813 174.205 324.64 182.216 319.129C188.245 314.982 192.02 310.894 194.002 306.777C196.032 302.558 196.047 298.584 195.077 295.038C194.14 291.615 192.293 288.629 190.73 286.257C190.445 285.825 190.177 285.424 189.923 285.043C189.435 284.315 188.998 283.66 188.59 283.006C187.977 282.022 187.601 281.299 187.41 280.747C187.282 280.376 187.152 280.004 187.021 279.632C185.562 275.468 184.065 271.199 185.26 266.761C186.474 262.248 190.904 256.504 205.104 251.32C220.7 245.627 226.975 236.304 228.91 227.376C230.482 220.122 229.063 213.283 228.434 210.252C228.325 209.726 228.24 209.315 228.198 209.036C228.135 208.616 228.037 208.107 227.923 207.523C227.238 203.991 226.018 197.7 228.948 191.461C232.158 184.627 241.127 176.739 266.244 175.317C291.596 173.882 317.472 176.916 335.898 182.931C345.152 185.951 352.216 189.625 356.443 193.604C360.55 197.472 361.652 201.227 360.247 205.123C359.179 208.087 358.706 211.134 359.987 213.683C361.377 216.448 364.153 217.388 366.558 217.648C368.993 217.911 371.887 217.591 374.877 217.044C377.916 216.489 381.316 215.645 384.846 214.716C386.283 214.338 387.742 213.946 389.216 213.549C395.076 211.974 401.158 210.339 406.939 209.298C414.285 207.975 420.378 207.776 424.468 209.391Z" stroke="#F46662" stroke-width="6.54"/>
<path d="M452.904 336.431V221.229C452.904 206.191 440.713 194 425.675 194H256.23C241.192 194 229.001 206.191 229.001 221.229V336.431C229.001 351.469 241.192 363.66 256.23 363.66H425.675C440.713 363.66 452.904 351.469 452.904 336.431Z" fill="white" stroke="#E1E4E5" stroke-width="3.40371"/>
<path d="M488.67 353.961H194.258C191.438 353.961 189.152 356.246 189.152 359.066V361.596C189.152 364.415 191.438 366.701 194.258 366.701H488.67C491.49 366.701 493.775 364.415 493.775 361.596V359.066C493.775 356.246 491.49 353.961 488.67 353.961Z" fill="white" stroke="#E1E4E5" stroke-width="3.40371"/>
<path fill-rule="evenodd" clip-rule="evenodd" d="M173.814 368.782C170.892 344.598 150.297 325.857 125.325 325.857C100.352 325.857 79.7579 344.598 76.8359 368.782H173.814Z" fill="white"/>
<mask id="mask0_11552_25444" style="mask-type:luminance" maskUnits="userSpaceOnUse" x="76" y="325" width="98" height="44">
<path fill-rule="evenodd" clip-rule="evenodd" d="M173.814 368.782C170.892 344.598 150.297 325.857 125.325 325.857C100.352 325.857 79.7579 344.598 76.8359 368.782H173.814Z" fill="#E1E4E5"/>
</mask>
<g mask="url(#mask0_11552_25444)">
<path d="M173.814 368.782V372.185H177.653L177.193 368.374L173.814 368.782ZM76.8358 368.782L73.4568 368.374L72.9961 372.185H76.8358V368.782ZM125.325 329.261C148.554 329.261 167.716 346.695 170.435 369.19L177.193 368.374C174.067 342.501 152.039 322.454 125.325 322.454V329.261ZM80.2148 369.19C82.9325 346.695 102.095 329.261 125.325 329.261V322.454C98.6096 322.454 76.5822 342.501 73.4568 368.374L80.2148 369.19ZM76.8358 372.185H173.814V365.378H76.8358V372.185Z" fill="#E1E4E5"/>
</g>
<path d="M167.03 236.512C177.369 236.512 185.75 228.131 185.75 217.793C185.75 207.454 177.369 199.073 167.03 199.073C156.692 199.073 148.311 207.454 148.311 217.793C148.311 228.131 156.692 236.512 167.03 236.512Z" fill="white" stroke="#E1E4E5" stroke-width="3.40371"/>
<path fill-rule="evenodd" clip-rule="evenodd" d="M187.916 193.201C174.967 183.043 156.175 183.929 144.246 195.86C132.315 207.789 131.43 226.581 141.587 239.53L187.916 193.201Z" fill="white"/>
<mask id="mask1_11552_25444" style="mask-type:luminance" maskUnits="userSpaceOnUse" x="134" y="186" width="54" height="54">
<path fill-rule="evenodd" clip-rule="evenodd" d="M187.916 193.201C174.967 183.043 156.175 183.929 144.246 195.86C132.315 207.789 131.43 226.581 141.587 239.53L187.916 193.201Z" fill="#E1E4E5"/>
</mask>
<g mask="url(#mask1_11552_25444)">
<path d="M187.917 193.201L190.324 195.607L193.039 192.893L190.018 190.523L187.917 193.201ZM141.588 239.53L138.91 241.631L141.28 244.652L143.994 241.937L141.588 239.53ZM146.653 198.266C157.351 187.568 174.206 186.771 185.816 195.879L190.018 190.523C175.73 179.316 155.002 180.291 141.84 193.453L146.653 198.266ZM144.266 237.43C135.158 225.819 135.955 208.964 146.653 198.266L141.84 193.453C128.678 206.615 127.703 227.343 138.91 241.631L144.266 237.43ZM143.994 241.937L190.324 195.607L185.51 190.794L139.181 237.123L143.994 241.937Z" fill="#E1E4E5"/>
</g>
<path d="M113.648 327.553L62.5938 238.208M61.9551 239.629L123.22 171.556M145.383 196.849L123.26 173.875" stroke="#E1E4E5" stroke-width="3.40371"/>
<path d="M166.039 247.406V252.232M199.01 217.652H203.834M189.369 237.064L192.773 241.318M559.835 348.939L567.977 346.224C570.406 345.415 572.518 343.861 574.015 341.784C575.512 339.708 576.318 337.212 576.318 334.652V332.949C576.318 327.152 571.619 322.454 565.823 322.454H555.327" stroke="#E1E4E5" stroke-width="3.40371" stroke-linecap="round" stroke-linejoin="round"/>
<path fill-rule="evenodd" clip-rule="evenodd" d="M513.348 327.701V343.444C513.348 355.037 522.746 364.435 534.338 364.435H539.585C551.179 364.435 560.577 355.037 560.577 343.444V327.701C560.576 326.309 560.023 324.975 559.039 323.991C558.055 323.006 556.72 322.454 555.329 322.454H518.595C517.203 322.454 515.869 323.007 514.885 323.991C513.9 324.975 513.348 326.309 513.348 327.701Z" fill="white" stroke="#E1E4E5" stroke-width="3.40371" stroke-linecap="round" stroke-linejoin="round"/>
<path fill-rule="evenodd" clip-rule="evenodd" d="M470.803 230.962V198.375C470.803 195 473.531 192.266 476.899 192.266H513.482C516.851 192.266 519.58 195 519.58 198.375V230.962C519.58 232.051 519.289 233.12 518.738 234.059C518.186 234.998 517.394 235.773 516.442 236.302L498.151 246.484C497.245 246.989 496.226 247.254 495.189 247.254C494.153 247.254 493.133 246.989 492.228 246.484L473.936 236.302C472.986 235.772 472.194 234.997 471.644 234.058C471.093 233.119 470.802 232.05 470.803 230.962Z" fill="white"/>
<path d="M485.053 219.212H505.331M485.053 209.711H505.331M485.053 228.438H505.331" stroke="#E1E4E5" stroke-width="3.13266" stroke-linecap="round" stroke-linejoin="round"/>
<rect x="296.5" y="221.5" width="88" height="55" rx="7.5" fill="#F46662" fill-opacity="0.11"/>
<path d="M320.959 253.443V251.021L327.031 241.455H329.119V244.807H327.884L324.055 250.865V250.979H332.685V253.443H320.959ZM327.94 256V252.705L327.997 251.632V241.455H330.881V256H327.94ZM340.437 256.32C339.215 256.315 338.164 256.014 337.283 255.418C336.407 254.821 335.733 253.957 335.259 252.825C334.79 251.694 334.558 250.332 334.563 248.741C334.563 247.155 334.798 245.804 335.266 244.686C335.74 243.569 336.415 242.719 337.29 242.136C338.171 241.549 339.22 241.256 340.437 241.256C341.654 241.256 342.7 241.549 343.576 242.136C344.457 242.723 345.134 243.576 345.607 244.693C346.081 245.806 346.315 247.155 346.31 248.741C346.31 250.337 346.074 251.701 345.6 252.832C345.131 253.964 344.459 254.828 343.583 255.425C342.707 256.021 341.658 256.32 340.437 256.32ZM340.437 253.77C341.27 253.77 341.935 253.351 342.433 252.513C342.93 251.675 343.176 250.418 343.171 248.741C343.171 247.638 343.058 246.72 342.83 245.986C342.608 245.252 342.29 244.7 341.879 244.331C341.471 243.962 340.991 243.777 340.437 243.777C339.608 243.777 338.945 244.191 338.448 245.02C337.951 245.848 337.7 247.089 337.695 248.741C337.695 249.859 337.807 250.792 338.029 251.54C338.256 252.283 338.576 252.842 338.988 253.216C339.4 253.585 339.883 253.77 340.437 253.77ZM348.283 253.443V251.021L354.355 241.455H356.444V244.807H355.208L351.38 250.865V250.979H360.009V253.443H348.283ZM355.265 256V252.705L355.321 251.632V241.455H358.205V256H355.265Z" fill="#F46662"/>
<rect x="296.5" y="221.5" width="88" height="55" rx="7.5" stroke="#F46662"/>
<rect x="279" y="288" width="123" height="13" fill="#EDEDED"/>
<rect x="308" y="309" width="65" height="13" fill="#EDEDED"/>
</g>
<defs>
<linearGradient id="paint0_linear_11552_25444" x1="171.449" y1="3.71208e-06" x2="436.017" y2="545" gradientUnits="userSpaceOnUse">
<stop stop-color="#161C23"/>
<stop offset="1" stop-color="#161C23" stop-opacity="0"/>
</linearGradient>
<linearGradient id="paint1_linear_11552_25444" x1="303.501" y1="89.3624" x2="303.501" y2="455.638" gradientUnits="userSpaceOnUse">
<stop stop-color="#B2B8BD" stop-opacity="0"/>
<stop offset="1" stop-color="#B2B8BD"/>
</linearGradient>
<clipPath id="clip0_11552_25444">
<rect width="654" height="436" fill="white" transform="translate(0 11)"/>
</clipPath>
</defs>
</svg>