<svg width="12" height="12" viewBox="0 0 12 12" fill="none" xmlns="http://www.w3.org/2000/svg">
<path d="M5.41667 10.6667C5.41667 10.9888 5.67782 11.25 6 11.25C6.32218 11.25 6.58333 10.9888 6.58333 10.6667V6.58333H10.6667C10.9888 6.58333 11.25 6.32218 11.25 6C11.25 5.67782 10.9888 5.41667 10.6667 5.41667H6.58333V1.33333C6.58333 1.01117 6.32218 0.75 6 0.75C5.67782 0.75 5.41667 1.01117 5.41667 1.33333V5.41667H1.33333C1.01117 5.41667 0.75 5.67782 0.75 6C0.75 6.32218 1.01117 6.58333 1.33333 6.58333H5.41667V10.6667Z" fill="white"/>
</svg>
