<svg width="16" height="16" viewBox="0 0 16 16" fill="none" xmlns="http://www.w3.org/2000/svg">
<g id="system/alert_octagon_line" clipPath="url(#clip0_6808_16916)">
<g id="&#233;&#161;&#181;&#233;&#157;&#162;-1">
<g id="System">
<g id="alert_line">
<path id="&#229;&#189;&#162;&#231;&#138;&#182;" d="M10.2098 1.33398C10.5634 1.33398 10.9026 1.47446 11.1526 1.72451L14.2768 4.8487C14.5269 5.09875 14.6673 5.43789 14.6673 5.79151V10.2098C14.6673 10.5634 14.5269 10.9026 14.2768 11.1526L11.1526 14.2768C10.9025 14.5269 10.5634 14.6673 10.2098 14.6673H5.79151C5.43789 14.6673 5.09875 14.5269 4.8487 14.2768L1.72451 11.1526C1.47446 10.9025 1.33398 10.5634 1.33398 10.2098V5.79151C1.33398 5.43789 1.47446 5.09875 1.72451 4.8487L4.8487 1.72451C5.09875 1.47446 5.43789 1.33398 5.79151 1.33398H10.2098ZM10.2098 2.66732H5.79151L2.66732 5.79151V10.2098L5.79151 13.334H10.2098L13.334 10.2098V5.79151L10.2098 2.66732ZM8.00065 10.0007C8.36885 10.0007 8.66732 10.2991 8.66732 10.6673C8.66732 11.0355 8.36885 11.334 8.00065 11.334C7.63245 11.334 7.33398 11.0355 7.33398 10.6673C7.33398 10.2991 7.63245 10.0007 8.00065 10.0007ZM8.00065 4.00065C8.36885 4.00065 8.66732 4.29913 8.66732 4.66732V8.66732C8.66732 9.03552 8.36885 9.33398 8.00065 9.33398C7.63245 9.33398 7.33398 9.03552 7.33398 8.66732V4.66732C7.33398 4.29913 7.63245 4.00065 8.00065 4.00065Z" fill="#FDA218"/>
</g>
</g>
</g>
</g>
<defs>
<clipPath id="clip0_6808_16916">
<rect width="16" height="16" fill="white"/>
</clipPath>
</defs>
</svg>
