<svg width="20" height="20" viewBox="0 0 20 20" fill="none" xmlns="http://www.w3.org/2000/svg">
<path fillRule="evenodd" clipRule ="evenodd" d="M11.0421 2.13849L16.2873 5.1668C16.9319 5.53895 17.3289 6.22672 17.3289 6.97102V13.0277C17.3289 13.7719 16.9319 14.4597 16.2873 14.8318L11.0421 17.8602C10.3975 18.2323 9.60335 18.2323 8.95877 17.8602L3.71354 14.8318C3.06896 14.4597 2.67188 13.7719 2.67188 13.0277V6.97102C2.67188 6.22672 3.06896 5.53895 3.71354 5.1668L8.95877 2.13849C9.60335 1.76634 10.3975 1.76634 11.0421 2.13849ZM4.33854 7.69271V13.0277C4.33854 13.1765 4.41796 13.3141 4.54688 13.3885L9.16702 16.0559V10.4654L4.33854 7.69271ZM15.6623 7.69271L10.8337 10.4654V16.056L15.4539 13.3885C15.5614 13.3265 15.6344 13.2206 15.6558 13.1009L15.6623 13.0277V7.69271ZM9.7921 3.58186L5.17188 6.24933L9.7921 8.91683C9.92102 8.99125 10.0798 8.99125 10.2088 8.91683L14.8289 6.24933L10.2088 3.58186C10.0798 3.50744 9.92102 3.50744 9.7921 3.58186Z" fill="white"/>
</svg>
