<svg width="10" height="10" viewBox="0 0 10 10" fill="none" xmlns="http://www.w3.org/2000/svg">
<path d="M0.334005 5.03534C0.329923 4.4722 0.932632 4.15234 1.39131 4.41028L1.44164 4.44134L2.63179 5.24325C3.26471 5.66967 2.8709 6.64125 2.14342 6.53863L2.08204 6.52756L2.03383 6.51698C2.44863 7.32716 3.1915 7.96481 4.13887 8.21867C5.62811 8.61769 7.15376 7.94223 7.88927 6.66596C8.07309 6.34694 8.48074 6.23738 8.79976 6.42121C9.11874 6.60507 9.22834 7.01267 9.04447 7.3317C8.01509 9.11801 5.88087 10.0658 3.79376 9.50658C1.925 9.00583 0.627971 7.43961 0.377985 5.63907C0.350398 5.44036 0.335536 5.23876 0.334005 5.03534ZM0.958891 2.66596C1.98834 0.879771 4.12247 -0.0679664 6.20954 0.491255C8.07829 0.991988 9.37531 2.5582 9.62531 4.35876C9.65291 4.55747 9.66776 4.75907 9.66927 4.96245C9.67338 5.52559 9.07066 5.84545 8.612 5.58755L8.56167 5.55649L7.37145 4.75454C6.73854 4.32812 7.13229 3.35658 7.85976 3.45914L7.92114 3.47021L7.96945 3.4808C7.55465 2.67062 6.81176 2.03299 5.86442 1.77916C4.37523 1.38013 2.84962 2.05556 2.1141 3.33174C1.93024 3.65075 1.5226 3.76031 1.2036 3.57646C0.884598 3.3926 0.775038 2.98496 0.958891 2.66596Z" fill="white"/>
</svg>
