<svg width="16" height="16" viewBox="0 0 16 16" fill="none" xmlns="http://www.w3.org/2000/svg">
<path fillRule="evenodd" clipRule="evenodd" d="M7.99918 8.94293L11.7704 12.7142C12.0307 12.9745 12.4528 12.9745 12.7132 12.7142C12.9735 12.4538 12.9735 12.0317 12.7132 11.7713L8.94198 8.00013L12.7132 4.2289C12.9735 3.96855 12.9735 3.54644 12.7132 3.28609C12.4528 3.02574 12.0307 3.02574 11.7704 3.28609L7.99918 7.05733L4.22791 3.28608C3.96756 3.02573 3.54545 3.02573 3.2851 3.28608C3.02476 3.54643 3.02476 3.96854 3.2851 4.22889L7.05632 8.00013L3.2851 11.7714C3.02476 12.0317 3.02476 12.4538 3.2851 12.7142C3.54545 12.9745 3.96756 12.9745 4.22791 12.7142L7.99918 8.94293Z" fill="#FF413C"/>
</svg>
