<svg width="20" height="20" viewBox="0 0 20 20" fill="none" xmlns="http://www.w3.org/2000/svg">
<g id="editor/pencil_line" clipPath="url(#clip0_836_15321)">
<g id="&#233;&#161;&#181;&#233;&#157;&#162;-1">
<g id="Editor">
<g id="pencil_line">
<path id="&#229;&#189;&#162;&#231;&#138;&#182;" d="M13.3631 2.51202C14.3003 1.57476 15.7966 1.53727 16.7786 2.39955L16.8986 2.51202L17.4878 3.10127C18.4251 4.03854 18.4626 5.53484 17.6003 6.51682L17.4878 6.63681L8.14425 15.9804C8.01172 16.1129 7.85154 16.2135 7.67588 16.2754L7.54143 16.3145L3.82902 17.1712C3.26003 17.3025 2.74686 16.8263 2.81229 16.2651L2.82864 16.1709L3.68535 12.4584C3.7275 12.2758 3.81002 12.1056 3.92616 11.96L4.01946 11.8556L13.3631 2.51202ZM12.7737 5.45835L5.28247 12.9496L4.75213 15.2477L7.05023 14.7174L14.5415 7.22611L12.7737 5.45835ZM15.7201 3.69053C15.4197 3.39013 14.947 3.36702 14.6201 3.62121L14.5416 3.69053L13.9522 4.27984L15.72 6.04761L16.3093 5.4583C16.6097 5.1579 16.6328 4.6852 16.3786 4.35829L16.3093 4.27979L15.7201 3.69053Z" fill="#020A12" fill-opacity="0.74"/>
</g>
</g>
</g>
</g>
<defs>
<clipPath id="clip0_836_15321">
<rect width="20" height="20" fill="white"/>
</clipPath>
</defs>
</svg>
