<svg width="20" height="20" viewBox="0 0 20 20" fill="none" xmlns="http://www.w3.org/2000/svg">
<path fillRule="evenodd" clipRule="evenodd" d="M3.33398 2.66634C3.33398 1.92996 3.93094 1.33301 4.66732 1.33301H11.334C12.0704 1.33301 12.6673 1.92996 12.6673 2.66634V3.90585C12.6673 5.02036 12.1103 6.06113 11.183 6.67934L9.20252 7.99967L11.183 9.32001C12.1103 9.93821 12.6673 10.979 12.6673 12.0935V13.333C12.6673 14.0694 12.0704 14.6663 11.334 14.6663H4.66732C3.93094 14.6663 3.33398 14.0694 3.33398 13.333V12.0935C3.33398 10.979 3.89099 9.93821 4.81832 9.32001L6.79878 7.99967L4.81832 6.67934C3.89099 6.06113 3.33398 5.02036 3.33398 3.90585V2.66634ZM8.00065 7.19841L10.4434 5.56995C10.9998 5.19902 11.334 4.57455 11.334 3.90585V2.66634H4.66732V3.90585C4.66732 4.57455 5.00152 5.19902 5.55792 5.56995L8.00065 7.19841ZM8.00065 8.80087L5.55792 10.4294C5.00152 10.8003 4.66732 11.4248 4.66732 12.0935V13.333H11.334V12.0935C11.334 11.4248 10.9998 10.8003 10.4434 10.4294L8.00065 8.80087Z" fill="#F46662"/>
</svg>
