<svg width="20" height="20" viewBox="0 0 20 20" fill="none" xmlns="http://www.w3.org/2000/svg">
<g id="Frame" clipPath="url(#clip0_9270_10799)">
<g id="Icon">
<g id="Design">
<g id="artboard_line">
<path id="&#229;&#189;&#162;&#231;&#138;&#182;" d="M4.16667 14.1667C5.08714 14.1667 5.83333 14.9128 5.83333 15.8333V16.6667C5.83333 17.1269 5.46023 17.5 5 17.5C4.53977 17.5 4.16667 17.1269 4.16667 16.6667V15.8333H3.33333C2.8731 15.8333 2.5 15.4602 2.5 15C2.5 14.5398 2.8731 14.1667 3.33333 14.1667H4.16667ZM16.6667 14.1667C17.1269 14.1667 17.5 14.5398 17.5 15C17.5 15.4274 17.1783 15.7796 16.7639 15.8277L16.6667 15.8333H15.8333V16.6667C15.8333 17.1269 15.4602 17.5 15 17.5C14.5726 17.5 14.2204 17.1783 14.1723 16.7639L14.1667 16.6667V15.8333C14.1667 14.9547 14.8465 14.2349 15.7089 14.1712L15.8333 14.1667H16.6667ZM13.3333 5C14.2538 5 15 5.74619 15 6.66667V13.3333C15 14.2538 14.2538 15 13.3333 15H6.66667C5.74619 15 5 14.2538 5 13.3333V6.66667C5 5.74619 5.74619 5 6.66667 5H13.3333ZM13.3333 6.66667H6.66667V13.3333H13.3333V6.66667ZM5 2.5C5.46023 2.5 5.83333 2.8731 5.83333 3.33333V4.16667C5.83333 5.08714 5.08714 5.83333 4.16667 5.83333H3.33333C2.8731 5.83333 2.5 5.46023 2.5 5C2.5 4.53977 2.8731 4.16667 3.33333 4.16667H4.16667V3.33333C4.16667 2.8731 4.53977 2.5 5 2.5ZM15 2.5C15.4274 2.5 15.7796 2.8217 15.8277 3.23615L15.8333 3.33333V4.16667H16.6667C17.1269 4.16667 17.5 4.53977 17.5 5C17.5 5.42736 17.1783 5.77959 16.7639 5.82773L16.6667 5.83333H15.8333C14.9547 5.83333 14.2349 5.15344 14.1712 4.29105L14.1667 4.16667V3.33333C14.1667 2.8731 14.5398 2.5 15 2.5Z" fill="white"/>
</g>
</g>
</g>
</g>
<defs>
<clipPath id="clip0_9270_10799">
<rect width="20" height="20" fill="white"/>
</clipPath>
</defs>
</svg>
