<svg width="44" height="44" viewBox="0 0 44 44" fill="none" xmlns="http://www.w3.org/2000/svg">
<g id="Frame 1000001625">
<rect width="44" height="44" rx="12" fill="#31363E"/>
<g id="&#233;&#161;&#181;&#233;&#157;&#162;-1">
<g id="File">
<g id="box_3_line">
<path id="&#229;&#189;&#162;&#231;&#138;&#182;" fillRule="evenodd" clipRule="evenodd" d="M17.0421 19.1385L22.2873 22.1668C22.9319 22.539 23.3289 23.2267 23.3289 23.971V30.0277C23.3289 30.7719 22.9319 31.4597 22.2873 31.8318L17.0421 34.8602C16.3975 35.2323 15.6033 35.2323 14.9588 34.8602L9.71354 31.8318C9.06896 31.4597 8.67188 30.7719 8.67188 30.0277V23.971C8.67188 23.2267 9.06896 22.539 9.71354 22.1668L14.9588 19.1385C15.6033 18.7663 16.3975 18.7663 17.0421 19.1385ZM10.3385 24.6927V30.0277C10.3385 30.1765 10.418 30.3141 10.5469 30.3885L15.167 33.0559V27.4654L10.3385 24.6927ZM21.6623 24.6927L16.8337 27.4654V33.056L21.4539 30.3885C21.5614 30.3265 21.6344 30.2206 21.6558 30.1009L21.6623 30.0277V24.6927ZM15.7921 20.5819L11.1719 23.2493L15.7921 25.9168C15.921 25.9912 16.0798 25.9912 16.2088 25.9168L20.8289 23.2493L16.2088 20.5819C16.0798 20.5074 15.921 20.5074 15.7921 20.5819Z" fill="white"/>
</g>
</g>
</g>
<g id="&#233;&#161;&#181;&#233;&#157;&#162;-1_2">
<g id="File_2">
<g id="box_3_line_2">
<path id="&#229;&#189;&#162;&#231;&#138;&#182;_2" fillRule="evenodd" clipRule="evenodd" d="M26.8349 8.70962L31.031 11.1323C31.5467 11.43 31.8643 11.9802 31.8643 12.5756V17.421C31.8643 18.0164 31.5467 18.5666 31.031 18.8643L26.8349 21.287C26.3192 21.5847 25.6839 21.5847 25.1682 21.287L20.972 18.8643C20.4563 18.5666 20.1387 18.0164 20.1387 17.421V12.5756C20.1387 11.9802 20.4563 11.43 20.972 11.1323L25.1682 8.70962C25.6839 8.4119 26.3192 8.4119 26.8349 8.70962ZM21.472 13.153V17.421C21.472 17.54 21.5355 17.6501 21.6387 17.7096L25.3348 19.8436V15.3712L21.472 13.153ZM30.531 13.153L26.6681 15.3712V19.8436L30.3643 17.7096C30.4503 17.66 30.5087 17.5753 30.5258 17.4795L30.531 17.421V13.153ZM25.8349 9.86432L22.1387 11.9983L25.8349 14.1323C25.938 14.1918 26.0651 14.1918 26.1682 14.1323L29.8643 11.9983L26.1682 9.86432C26.0651 9.80478 25.938 9.80478 25.8349 9.86432Z" fill="white"/>
</g>
</g>
</g>
<g id="&#233;&#161;&#181;&#233;&#157;&#162;-1_3">
<g id="File_3">
<g id="box_3_line_3">
<path id="&#229;&#189;&#162;&#231;&#138;&#182;_3" fillRule="evenodd" clipRule="evenodd" d="M30.6257 22.2827L33.7728 24.0997C34.1595 24.323 34.3978 24.7356 34.3978 25.1822V28.8162C34.3978 29.2628 34.1595 29.6755 33.7728 29.8987L30.6257 31.7157C30.2389 31.939 29.7624 31.939 29.3757 31.7157L26.2285 29.8987C25.8418 29.6755 25.6035 29.2628 25.6035 28.8162V25.1822C25.6035 24.7356 25.8418 24.323 26.2285 24.0997L29.3757 22.2827C29.7624 22.0594 30.2389 22.0594 30.6257 22.2827ZM26.6035 25.6152V28.8162C26.6035 28.9055 26.6512 28.9881 26.7285 29.0327L29.5006 30.6332V27.2789L26.6035 25.6152ZM33.3978 25.6152L30.5006 27.2789V30.6332L33.2728 29.0327C33.3372 28.9955 33.381 28.932 33.3939 28.8602L33.3978 28.8162V25.6152ZM29.8757 23.1487L27.1035 24.7492L29.8757 26.3497C29.953 26.3944 30.0483 26.3944 30.1257 26.3497L32.8978 24.7492L30.1257 23.1487C30.0483 23.1041 29.953 23.1041 29.8757 23.1487Z" fill="white"/>
</g>
</g>
</g>
</g>
</svg>
